<svg xmlns="http://www.w3.org/2000/svg" width="18.001" height="18" viewBox="0 0 18.001 18">
  <g id="archive_icon" data-name="archive icon" transform="translate(-4015 -476)">
    <path id="archive_icon-2" data-name="archive icon" d="M4017.12,478l.81-1h12l.941,1ZM4024,490.5l-5.5-5.5h3.5v-2h4v2h3.5Zm8.54-12.27-1.389-1.68A1.452,1.452,0,0,0,4030,476h-12a1.485,1.485,0,0,0-1.159.55l-1.382,1.68a1.963,1.963,0,0,0-.459,1.27V492a2.006,2.006,0,0,0,2,2h14a2.006,2.006,0,0,0,2-2V479.5A1.954,1.954,0,0,0,4032.539,478.23Z" fill="#4d4d4d"/>
  </g>
</svg>
