<svg xmlns="http://www.w3.org/2000/svg" width="19.454" height="20" viewBox="0 0 19.454 20">
  <path id="settings_icon" data-name="settings icon" d="M4713,488.5a3.5,3.5,0,1,1,3.5-3.5A3.5,3.5,0,0,1,4713,488.5Zm7.43-2.52a6.911,6.911,0,0,0,0-1.96l2.109-1.65a.5.5,0,0,0,.121-.64l-2-3.46a.5.5,0,0,0-.609-.22l-2.491,1a7.323,7.323,0,0,0-1.69-.98l-.379-2.65a.487.487,0,0,0-.49-.42h-4a.488.488,0,0,0-.49.42l-.38,2.65a7.716,7.716,0,0,0-1.69.98l-2.49-1a.488.488,0,0,0-.61.22l-2,3.46a.493.493,0,0,0,.121.64l2.109,1.65a6.911,6.911,0,0,0,0,1.96l-2.109,1.65a.506.506,0,0,0-.121.64l2,3.46a.5.5,0,0,0,.61.22l2.49-1a7.346,7.346,0,0,0,1.69.98l.38,2.65a.488.488,0,0,0,.49.42h4a.487.487,0,0,0,.49-.42l.379-2.65a7.7,7.7,0,0,0,1.69-.98l2.491,1a.486.486,0,0,0,.609-.22l2-3.46a.5.5,0,0,0-.121-.64Z" transform="translate(-4703.27 -475)" fill="#4d4d4d"/>
</svg>
