<svg xmlns="http://www.w3.org/2000/svg" width="22.001" height="12" viewBox="0 0 22.001 12">
  <g id="charts" transform="translate(-3501.999 -555)">
    <g id="charts_icon" data-name="charts icon">
      <path id="charts_icon-2" data-name="charts icon" d="M3524,557a2.007,2.007,0,0,1-2,2,1.7,1.7,0,0,1-.509-.07l-3.56,3.55a1.772,1.772,0,0,1,.071.52,2,2,0,0,1-4,0,1.764,1.764,0,0,1,.07-.52l-2.55-2.55a1.968,1.968,0,0,1-1.041,0l-4.549,4.56a1.707,1.707,0,0,1,.07.51,2,2,0,1,1-2-2,1.689,1.689,0,0,1,.509.07l4.56-4.55a1.763,1.763,0,0,1-.07-.52,2,2,0,0,1,4,0,1.772,1.772,0,0,1-.07.52l2.55,2.55a1.969,1.969,0,0,1,1.04,0l3.55-3.56A1.707,1.707,0,0,1,3520,557a2,2,0,0,1,4,0Z" fill="#4c4c4c"/>
    </g>
  </g>
</svg>
