<svg xmlns="http://www.w3.org/2000/svg" width="21" height="21" viewBox="0 0 21 21">
  <g id="widgets" transform="translate(-3503 -312)">
    <g id="widgets_icon" data-name="widgets icon">
      <path id="widgets_icon-2" data-name="widgets icon" d="M3521.5,322H3520v-4a2.005,2.005,0,0,0-2-2h-4v-1.5a2.5,2.5,0,1,0-5,0V316h-4a2,2,0,0,0-1.99,2v3.8h1.49a2.7,2.7,0,0,1,0,5.4H3503V331a2.005,2.005,0,0,0,2,2h3.8v-1.5a2.7,2.7,0,1,1,5.4,0V333h3.8a2,2,0,0,0,2-2v-4h1.5a2.5,2.5,0,1,0,0-5Z" fill="#4c4c4c"/>
    </g>
  </g>
</svg>
